<mxfile host="app.diagrams.net" modified="2024-03-08T18:26:35.812Z" agent="Mozilla/5.0 (Windows NT 10.0; Win64; x64) AppleWebKit/537.36 (KHTML, like Gecko) Chrome/122.0.0.0 Safari/537.36" etag="m7kLAqc-OORSdADQ2kd1" version="24.0.2" type="github">
  <diagram name="Página-1" id="wJDs-Wq8HHTqEsGzUxAf">
    <mxGraphModel dx="2391" dy="1201" grid="1" gridSize="10" guides="1" tooltips="1" connect="1" arrows="1" fold="1" page="1" pageScale="1" pageWidth="827" pageHeight="1169" math="0" shadow="0">
      <root>
        <mxCell id="0" />
        <mxCell id="1" parent="0" />
        <mxCell id="75Ep1vRNf8CcEZTLBjgE-1" value="Anuncio de Google Ads de mejor calidad 2024" style="whiteSpace=wrap;strokeWidth=2;" vertex="1" parent="1">
          <mxGeometry x="1995" y="20" width="344" height="34" as="geometry" />
        </mxCell>
        <mxCell id="75Ep1vRNf8CcEZTLBjgE-2" value="15 Títulos" style="rounded=1;absoluteArcSize=1;arcSize=14;whiteSpace=wrap;strokeWidth=2;" vertex="1" parent="1">
          <mxGeometry x="236" y="104" width="86" height="34" as="geometry" />
        </mxCell>
        <mxCell id="75Ep1vRNf8CcEZTLBjgE-3" value="4 Descripciones" style="rounded=1;absoluteArcSize=1;arcSize=14;whiteSpace=wrap;strokeWidth=2;" vertex="1" parent="1">
          <mxGeometry x="832" y="104" width="127" height="34" as="geometry" />
        </mxCell>
        <mxCell id="75Ep1vRNf8CcEZTLBjgE-4" value="Grupo de Anuncios" style="rounded=1;absoluteArcSize=1;arcSize=14;whiteSpace=wrap;strokeWidth=2;" vertex="1" parent="1">
          <mxGeometry x="1402" y="104" width="148" height="34" as="geometry" />
        </mxCell>
        <mxCell id="75Ep1vRNf8CcEZTLBjgE-5" value="Jerarquía de Valor de Tipos de Conversiones" style="rounded=1;absoluteArcSize=1;arcSize=14;whiteSpace=wrap;strokeWidth=2;" vertex="1" parent="1">
          <mxGeometry x="2002" y="104" width="331" height="34" as="geometry" />
        </mxCell>
        <mxCell id="75Ep1vRNf8CcEZTLBjgE-6" value="Imágenes" style="rounded=1;absoluteArcSize=1;arcSize=14;whiteSpace=wrap;strokeWidth=2;" vertex="1" parent="1">
          <mxGeometry x="2650" y="104" width="82" height="34" as="geometry" />
        </mxCell>
        <mxCell id="75Ep1vRNf8CcEZTLBjgE-7" value="Perfil Verificado" style="rounded=1;absoluteArcSize=1;arcSize=14;whiteSpace=wrap;strokeWidth=2;" vertex="1" parent="1">
          <mxGeometry x="2850" y="104" width="131" height="34" as="geometry" />
        </mxCell>
        <mxCell id="75Ep1vRNf8CcEZTLBjgE-8" value="Logo" style="rounded=1;absoluteArcSize=1;arcSize=14;whiteSpace=wrap;strokeWidth=2;" vertex="1" parent="1">
          <mxGeometry x="3080" y="104" width="49" height="34" as="geometry" />
        </mxCell>
        <mxCell id="75Ep1vRNf8CcEZTLBjgE-9" value="Al menos 1 título con keyword" style="rounded=1;absoluteArcSize=1;arcSize=14;whiteSpace=wrap;strokeWidth=2;" vertex="1" parent="1">
          <mxGeometry x="20" y="188" width="233" height="34" as="geometry" />
        </mxCell>
        <mxCell id="75Ep1vRNf8CcEZTLBjgE-10" value="Títulos relevantes y atractivos" style="rounded=1;absoluteArcSize=1;arcSize=14;whiteSpace=wrap;strokeWidth=2;" vertex="1" parent="1">
          <mxGeometry x="303" y="188" width="234" height="34" as="geometry" />
        </mxCell>
        <mxCell id="75Ep1vRNf8CcEZTLBjgE-11" value="Al menos 1 descripción con keyword" style="rounded=1;absoluteArcSize=1;arcSize=14;whiteSpace=wrap;strokeWidth=2;" vertex="1" parent="1">
          <mxGeometry x="587" y="188" width="276" height="34" as="geometry" />
        </mxCell>
        <mxCell id="75Ep1vRNf8CcEZTLBjgE-12" value="Descripciones persuasivas e informativas" style="rounded=1;absoluteArcSize=1;arcSize=14;whiteSpace=wrap;strokeWidth=2;" vertex="1" parent="1">
          <mxGeometry x="913" y="188" width="307" height="34" as="geometry" />
        </mxCell>
        <mxCell id="75Ep1vRNf8CcEZTLBjgE-13" value="Mínimo 3 anuncios" style="rounded=1;absoluteArcSize=1;arcSize=14;whiteSpace=wrap;strokeWidth=2;" vertex="1" parent="1">
          <mxGeometry x="1270" y="188" width="148" height="34" as="geometry" />
        </mxCell>
        <mxCell id="75Ep1vRNf8CcEZTLBjgE-14" value="Variaciones de títulos y descripciones" style="rounded=1;absoluteArcSize=1;arcSize=14;whiteSpace=wrap;strokeWidth=2;" vertex="1" parent="1">
          <mxGeometry x="1467" y="188" width="285" height="34" as="geometry" />
        </mxCell>
        <mxCell id="75Ep1vRNf8CcEZTLBjgE-15" value="Conversiones de alto valor" style="rounded=1;absoluteArcSize=1;arcSize=14;whiteSpace=wrap;strokeWidth=2;" vertex="1" parent="1">
          <mxGeometry x="1802" y="188" width="205" height="34" as="geometry" />
        </mxCell>
        <mxCell id="75Ep1vRNf8CcEZTLBjgE-16" value="Conversiones de valor medio" style="rounded=1;absoluteArcSize=1;arcSize=14;whiteSpace=wrap;strokeWidth=2;" vertex="1" parent="1">
          <mxGeometry x="2057" y="188" width="221" height="34" as="geometry" />
        </mxCell>
        <mxCell id="75Ep1vRNf8CcEZTLBjgE-17" value="Conversiones de bajo valor" style="rounded=1;absoluteArcSize=1;arcSize=14;whiteSpace=wrap;strokeWidth=2;" vertex="1" parent="1">
          <mxGeometry x="2328" y="188" width="209" height="34" as="geometry" />
        </mxCell>
        <mxCell id="75Ep1vRNf8CcEZTLBjgE-18" value="Imagen 1" style="rounded=1;absoluteArcSize=1;arcSize=14;whiteSpace=wrap;strokeWidth=2;" vertex="1" parent="1">
          <mxGeometry x="2586" y="188" width="80" height="34" as="geometry" />
        </mxCell>
        <mxCell id="75Ep1vRNf8CcEZTLBjgE-19" value="Imagen 2" style="rounded=1;absoluteArcSize=1;arcSize=14;whiteSpace=wrap;strokeWidth=2;" vertex="1" parent="1">
          <mxGeometry x="2716" y="188" width="80" height="34" as="geometry" />
        </mxCell>
        <mxCell id="75Ep1vRNf8CcEZTLBjgE-20" value="Estado verificado" style="rounded=1;absoluteArcSize=1;arcSize=14;whiteSpace=wrap;strokeWidth=2;" vertex="1" parent="1">
          <mxGeometry x="2846" y="188" width="139" height="34" as="geometry" />
        </mxCell>
        <mxCell id="75Ep1vRNf8CcEZTLBjgE-21" value="Logo de la marca" style="rounded=1;absoluteArcSize=1;arcSize=14;whiteSpace=wrap;strokeWidth=2;" vertex="1" parent="1">
          <mxGeometry x="3035" y="188" width="138" height="34" as="geometry" />
        </mxCell>
        <mxCell id="75Ep1vRNf8CcEZTLBjgE-22" value="" style="curved=1;startArrow=none;endArrow=block;exitX=0.001067405523255814;exitY=0.6124438041008415;entryX=0.49370912063953487;entryY=0;rounded=0;" edge="1" parent="1" source="75Ep1vRNf8CcEZTLBjgE-1" target="75Ep1vRNf8CcEZTLBjgE-2">
          <mxGeometry relative="1" as="geometry">
            <Array as="points">
              <mxPoint x="278" y="79" />
            </Array>
          </mxGeometry>
        </mxCell>
        <mxCell id="75Ep1vRNf8CcEZTLBjgE-23" value="" style="curved=1;startArrow=none;endArrow=block;exitX=0.001067405523255814;exitY=0.6669982910189333;entryX=0.5;entryY=0;rounded=0;" edge="1" parent="1" source="75Ep1vRNf8CcEZTLBjgE-1" target="75Ep1vRNf8CcEZTLBjgE-3">
          <mxGeometry relative="1" as="geometry">
            <Array as="points">
              <mxPoint x="896" y="79" />
            </Array>
          </mxGeometry>
        </mxCell>
        <mxCell id="75Ep1vRNf8CcEZTLBjgE-24" value="" style="curved=1;startArrow=none;endArrow=block;exitX=0.001067405523255814;exitY=0.807512679327502;entryX=0.5042889569256757;entryY=0;rounded=0;" edge="1" parent="1" source="75Ep1vRNf8CcEZTLBjgE-1" target="75Ep1vRNf8CcEZTLBjgE-4">
          <mxGeometry relative="1" as="geometry">
            <Array as="points">
              <mxPoint x="1477" y="79" />
            </Array>
          </mxGeometry>
        </mxCell>
        <mxCell id="75Ep1vRNf8CcEZTLBjgE-25" value="" style="curved=1;startArrow=none;endArrow=block;exitX=0.5008743640988372;exitY=1;entryX=0.49939813066465255;entryY=0;rounded=0;" edge="1" parent="1" source="75Ep1vRNf8CcEZTLBjgE-1" target="75Ep1vRNf8CcEZTLBjgE-5">
          <mxGeometry relative="1" as="geometry">
            <Array as="points" />
          </mxGeometry>
        </mxCell>
        <mxCell id="75Ep1vRNf8CcEZTLBjgE-26" value="" style="curved=1;startArrow=none;endArrow=block;exitX=1.0006813226744187;exitY=0.9054516415853371;entryX=0.5016196646341463;entryY=0;rounded=0;" edge="1" parent="1" source="75Ep1vRNf8CcEZTLBjgE-1" target="75Ep1vRNf8CcEZTLBjgE-6">
          <mxGeometry relative="1" as="geometry">
            <Array as="points">
              <mxPoint x="2691" y="79" />
            </Array>
          </mxGeometry>
        </mxCell>
        <mxCell id="75Ep1vRNf8CcEZTLBjgE-27" value="" style="curved=1;startArrow=none;endArrow=block;exitX=1.0006813226744187;exitY=0.7838351983098523;entryX=0.5006261927480916;entryY=0;rounded=0;" edge="1" parent="1" source="75Ep1vRNf8CcEZTLBjgE-1" target="75Ep1vRNf8CcEZTLBjgE-7">
          <mxGeometry relative="1" as="geometry">
            <Array as="points">
              <mxPoint x="2916" y="79" />
            </Array>
          </mxGeometry>
        </mxCell>
        <mxCell id="75Ep1vRNf8CcEZTLBjgE-28" value="" style="curved=1;startArrow=none;endArrow=block;exitX=1.0006813226744187;exitY=0.726656400309462;entryX=0.49697066326530615;entryY=0;rounded=0;" edge="1" parent="1" source="75Ep1vRNf8CcEZTLBjgE-1" target="75Ep1vRNf8CcEZTLBjgE-8">
          <mxGeometry relative="1" as="geometry">
            <Array as="points">
              <mxPoint x="3104" y="79" />
            </Array>
          </mxGeometry>
        </mxCell>
        <mxCell id="75Ep1vRNf8CcEZTLBjgE-29" value="" style="curved=1;startArrow=none;endArrow=block;exitX=-0.0037018531976744187;exitY=0.8727719004768029;entryX=0.5008717811158798;entryY=0;rounded=0;" edge="1" parent="1" source="75Ep1vRNf8CcEZTLBjgE-2" target="75Ep1vRNf8CcEZTLBjgE-9">
          <mxGeometry relative="1" as="geometry">
            <Array as="points">
              <mxPoint x="137" y="163" />
            </Array>
          </mxGeometry>
        </mxCell>
        <mxCell id="75Ep1vRNf8CcEZTLBjgE-30" value="" style="curved=1;startArrow=none;endArrow=block;exitX=0.9911200944767442;exitY=0.8727719004768029;entryX=0.5009181356837606;entryY=0;rounded=0;" edge="1" parent="1" source="75Ep1vRNf8CcEZTLBjgE-2" target="75Ep1vRNf8CcEZTLBjgE-10">
          <mxGeometry relative="1" as="geometry">
            <Array as="points">
              <mxPoint x="420" y="163" />
            </Array>
          </mxGeometry>
        </mxCell>
        <mxCell id="75Ep1vRNf8CcEZTLBjgE-31" value="" style="curved=1;startArrow=none;endArrow=block;exitX=-0.0015071358267716535;exitY=0.9610509222230301;entryX=0.49946218297101447;entryY=0;rounded=0;" edge="1" parent="1" source="75Ep1vRNf8CcEZTLBjgE-3" target="75Ep1vRNf8CcEZTLBjgE-11">
          <mxGeometry relative="1" as="geometry">
            <Array as="points">
              <mxPoint x="725" y="163" />
            </Array>
          </mxGeometry>
        </mxCell>
        <mxCell id="75Ep1vRNf8CcEZTLBjgE-32" value="" style="curved=1;startArrow=none;endArrow=block;exitX=1.0015071358267718;exitY=0.9610509222230301;entryX=0.49885484527687296;entryY=0;rounded=0;" edge="1" parent="1" source="75Ep1vRNf8CcEZTLBjgE-3" target="75Ep1vRNf8CcEZTLBjgE-12">
          <mxGeometry relative="1" as="geometry">
            <Array as="points">
              <mxPoint x="1066" y="163" />
            </Array>
          </mxGeometry>
        </mxCell>
        <mxCell id="75Ep1vRNf8CcEZTLBjgE-33" value="" style="curved=1;startArrow=none;endArrow=block;exitX=0.14025643249276126;exitY=1;entryX=0.4968063766891892;entryY=0;rounded=0;" edge="1" parent="1" source="75Ep1vRNf8CcEZTLBjgE-4" target="75Ep1vRNf8CcEZTLBjgE-13">
          <mxGeometry relative="1" as="geometry">
            <Array as="points">
              <mxPoint x="1344" y="163" />
            </Array>
          </mxGeometry>
        </mxCell>
        <mxCell id="75Ep1vRNf8CcEZTLBjgE-34" value="" style="curved=1;startArrow=none;endArrow=block;exitX=0.8683214813585901;exitY=1;entryX=0.5008497807017543;entryY=0;rounded=0;" edge="1" parent="1" source="75Ep1vRNf8CcEZTLBjgE-4" target="75Ep1vRNf8CcEZTLBjgE-14">
          <mxGeometry relative="1" as="geometry">
            <Array as="points">
              <mxPoint x="1610" y="163" />
            </Array>
          </mxGeometry>
        </mxCell>
        <mxCell id="75Ep1vRNf8CcEZTLBjgE-35" value="" style="curved=1;startArrow=none;endArrow=block;exitX=0.17806200321896118;exitY=1;entryX=0.5001143292682927;entryY=0;rounded=0;" edge="1" parent="1" source="75Ep1vRNf8CcEZTLBjgE-5" target="75Ep1vRNf8CcEZTLBjgE-15">
          <mxGeometry relative="1" as="geometry">
            <Array as="points">
              <mxPoint x="1905" y="163" />
            </Array>
          </mxGeometry>
        </mxCell>
        <mxCell id="75Ep1vRNf8CcEZTLBjgE-36" value="" style="curved=1;startArrow=none;endArrow=block;exitX=0.49939813066465255;exitY=1;entryX=0.4990985576923077;entryY=0;rounded=0;" edge="1" parent="1" source="75Ep1vRNf8CcEZTLBjgE-5" target="75Ep1vRNf8CcEZTLBjgE-16">
          <mxGeometry relative="1" as="geometry">
            <Array as="points" />
          </mxGeometry>
        </mxCell>
        <mxCell id="75Ep1vRNf8CcEZTLBjgE-37" value="" style="curved=1;startArrow=none;endArrow=block;exitX=0.8230079867105449;exitY=1;entryX=0.49730861244019137;entryY=0;rounded=0;" edge="1" parent="1" source="75Ep1vRNf8CcEZTLBjgE-5" target="75Ep1vRNf8CcEZTLBjgE-17">
          <mxGeometry relative="1" as="geometry">
            <Array as="points">
              <mxPoint x="2432" y="163" />
            </Array>
          </mxGeometry>
        </mxCell>
        <mxCell id="75Ep1vRNf8CcEZTLBjgE-38" value="" style="curved=1;startArrow=none;endArrow=block;exitX=0.18111888429151937;exitY=1;entryX=0.5025390625;entryY=0;rounded=0;" edge="1" parent="1" source="75Ep1vRNf8CcEZTLBjgE-6" target="75Ep1vRNf8CcEZTLBjgE-18">
          <mxGeometry relative="1" as="geometry">
            <Array as="points">
              <mxPoint x="2626" y="163" />
            </Array>
          </mxGeometry>
        </mxCell>
        <mxCell id="75Ep1vRNf8CcEZTLBjgE-39" value="" style="curved=1;startArrow=none;endArrow=block;exitX=0.8221204449767733;exitY=1;entryX=0.50078125;entryY=0;rounded=0;" edge="1" parent="1" source="75Ep1vRNf8CcEZTLBjgE-6" target="75Ep1vRNf8CcEZTLBjgE-19">
          <mxGeometry relative="1" as="geometry">
            <Array as="points">
              <mxPoint x="2756" y="163" />
            </Array>
          </mxGeometry>
        </mxCell>
        <mxCell id="75Ep1vRNf8CcEZTLBjgE-40" value="" style="curved=1;startArrow=none;endArrow=block;exitX=0.5006261927480916;exitY=1;entryX=0.5005901528776978;entryY=0;rounded=0;" edge="1" parent="1" source="75Ep1vRNf8CcEZTLBjgE-7" target="75Ep1vRNf8CcEZTLBjgE-20">
          <mxGeometry relative="1" as="geometry">
            <Array as="points" />
          </mxGeometry>
        </mxCell>
        <mxCell id="75Ep1vRNf8CcEZTLBjgE-41" value="" style="curved=1;startArrow=none;endArrow=block;exitX=0.49697066326530615;exitY=1;entryX=0.502547554347826;entryY=0;rounded=0;" edge="1" parent="1" source="75Ep1vRNf8CcEZTLBjgE-8" target="75Ep1vRNf8CcEZTLBjgE-21">
          <mxGeometry relative="1" as="geometry">
            <Array as="points" />
          </mxGeometry>
        </mxCell>
      </root>
    </mxGraphModel>
  </diagram>
</mxfile>
